<svg id="splitsvg" version="1.1" xmlns="http://www.w3.org/2000/svg" xmlns:xlink="http://www.w3.org/1999/xlink" width="1380" height="860"><g id="svgg"><path id="path0" d="M151.000 119.742 C 150.340 120.050,149.295 120.839,148.678 121.496 C 146.302 124.023,146.409 120.316,146.409 200.000 C 146.409 279.683,146.302 275.976,148.678 278.505 C 151.460 281.465,157.145 281.650,160.660 278.895 C 161.507 278.231,162.876 277.473,163.703 277.212 C 164.530 276.950,165.386 276.399,165.606 275.988 C 165.826 275.577,167.073 274.852,168.377 274.376 C 169.681 273.901,170.848 273.253,170.969 272.936 C 171.091 272.619,172.227 271.905,173.495 271.348 C 174.763 270.791,176.250 269.922,176.800 269.416 C 177.350 268.910,178.448 268.290,179.241 268.037 C 180.033 267.784,181.270 267.052,181.989 266.410 C 182.708 265.768,183.815 265.128,184.449 264.989 C 185.082 264.850,186.321 264.134,187.201 263.399 C 188.082 262.663,189.476 261.839,190.300 261.567 C 191.124 261.295,192.276 260.561,192.860 259.936 C 193.443 259.311,194.282 258.800,194.723 258.800 C 195.164 258.800,196.262 258.184,197.163 257.431 C 198.065 256.677,199.477 255.846,200.301 255.583 C 201.126 255.320,202.340 254.603,203.000 253.989 C 203.660 253.375,204.983 252.642,205.940 252.361 C 206.897 252.079,207.945 251.446,208.268 250.953 C 208.591 250.460,209.667 249.780,210.659 249.442 C 211.652 249.103,213.094 248.273,213.865 247.597 C 214.635 246.920,215.776 246.265,216.399 246.140 C 217.023 246.015,218.027 245.398,218.631 244.767 C 219.235 244.137,220.602 243.332,221.668 242.977 C 222.735 242.623,223.785 242.001,224.002 241.596 C 224.219 241.190,225.432 240.473,226.698 240.002 C 227.964 239.530,229.450 238.724,230.000 238.209 C 230.550 237.695,231.706 236.984,232.568 236.629 C 233.430 236.274,234.375 235.643,234.667 235.225 C 234.960 234.808,236.054 234.152,237.099 233.768 C 238.145 233.384,239.540 232.581,240.200 231.982 C 240.860 231.384,242.049 230.688,242.841 230.436 C 243.634 230.183,244.702 229.530,245.215 228.984 C 245.728 228.438,246.837 227.805,247.679 227.579 C 248.521 227.352,249.818 226.633,250.560 225.981 C 251.302 225.330,252.692 224.520,253.647 224.183 C 254.603 223.846,255.544 223.286,255.738 222.939 C 255.932 222.592,257.218 221.798,258.595 221.173 C 259.973 220.548,261.203 219.769,261.329 219.441 C 261.455 219.113,262.293 218.625,263.191 218.355 C 264.090 218.086,265.224 217.471,265.713 216.989 C 266.758 215.955,268.903 214.800,269.777 214.800 C 270.116 214.800,270.869 214.267,271.450 213.614 C 272.031 212.962,273.383 212.138,274.455 211.782 C 275.527 211.426,276.929 210.609,277.571 209.967 C 278.213 209.325,279.033 208.800,279.393 208.800 C 280.165 208.800,284.400 204.906,284.400 204.196 C 284.400 203.928,284.760 203.250,285.200 202.691 C 285.711 202.042,286.000 201.068,286.000 200.000 C 286.000 198.932,285.711 197.958,285.200 197.309 C 284.760 196.750,284.400 196.072,284.400 195.804 C 284.400 195.094,280.165 191.200,279.393 191.200 C 279.033 191.200,278.229 190.691,277.607 190.069 C 276.985 189.447,275.634 188.616,274.605 188.223 C 273.576 187.830,272.203 186.989,271.553 186.354 C 270.904 185.719,270.100 185.200,269.766 185.200 C 268.888 185.200,266.747 184.034,265.671 182.970 C 265.160 182.464,264.233 181.939,263.612 181.803 C 262.991 181.666,262.150 181.186,261.742 180.736 C 261.335 180.286,259.875 179.407,258.497 178.783 C 257.120 178.158,255.889 177.375,255.761 177.043 C 255.634 176.711,254.870 176.228,254.065 175.972 C 253.259 175.715,251.803 174.894,250.830 174.149 C 249.856 173.403,248.400 172.615,247.593 172.398 C 246.787 172.181,245.783 171.619,245.364 171.150 C 244.944 170.680,243.790 169.948,242.800 169.522 C 241.810 169.097,240.550 168.332,240.000 167.823 C 239.450 167.313,238.342 166.687,237.539 166.430 C 236.735 166.173,235.575 165.498,234.961 164.929 C 234.347 164.360,233.205 163.631,232.422 163.310 C 231.640 162.989,230.550 162.305,230.000 161.791 C 229.450 161.276,227.964 160.470,226.698 159.998 C 225.432 159.527,224.219 158.810,224.002 158.404 C 223.785 157.999,222.735 157.377,221.668 157.023 C 220.602 156.668,219.235 155.863,218.631 155.233 C 218.027 154.602,217.023 153.985,216.399 153.860 C 215.776 153.735,214.641 153.085,213.878 152.415 C 213.115 151.745,211.706 150.920,210.747 150.581 C 209.788 150.243,208.642 149.549,208.201 149.040 C 207.761 148.531,206.545 147.804,205.499 147.424 C 204.454 147.044,203.366 146.402,203.083 145.997 C 202.799 145.592,201.627 144.903,200.477 144.466 C 199.328 144.030,197.754 143.116,196.980 142.436 C 196.206 141.756,195.201 141.200,194.747 141.200 C 194.292 141.200,193.443 140.689,192.860 140.064 C 192.276 139.439,191.124 138.705,190.300 138.433 C 189.476 138.161,188.082 137.337,187.201 136.601 C 186.321 135.866,185.082 135.150,184.449 135.011 C 183.815 134.872,182.708 134.232,181.989 133.590 C 181.270 132.948,180.033 132.216,179.241 131.963 C 178.448 131.710,177.350 131.090,176.800 130.584 C 176.250 130.078,174.793 129.222,173.562 128.681 C 172.331 128.141,171.223 127.437,171.100 127.117 C 170.977 126.797,169.781 126.136,168.442 125.647 C 167.102 125.159,165.830 124.430,165.615 124.028 C 165.400 123.625,164.468 122.994,163.544 122.624 C 162.620 122.255,161.086 121.393,160.135 120.710 C 158.074 119.230,153.202 118.714,151.000 119.742  M -25 0 L -5 0 L -5 20 L -25 20 Z M 405 0 L 425 0 L 425 20 L 405 20 Z" stroke="none" fill="#f7f7fb" fill-rule="evenodd" transform="translate(30,0)"></path><path id="path1" d="M151.735 117.610 C 147.506 118.702,147.446 118.758,144.301 124.519 C 143.216 126.506,143.216 273.494,144.301 275.481 C 147.385 281.130,147.935 281.629,151.898 282.381 C 152.975 282.585,154.023 282.797,154.228 282.853 C 155.600 283.225,161.461 281.352,162.762 280.125 C 163.534 279.396,164.463 278.800,164.824 278.800 C 165.186 278.800,166.093 278.350,166.841 277.801 C 167.588 277.252,169.118 276.351,170.239 275.799 C 171.361 275.248,172.593 274.449,172.977 274.025 C 173.362 273.600,174.580 272.928,175.684 272.531 C 176.789 272.134,178.017 271.397,178.413 270.893 C 178.809 270.389,180.019 269.714,181.101 269.392 C 182.183 269.071,183.413 268.420,183.834 267.946 C 184.255 267.472,185.528 266.670,186.663 266.164 C 187.798 265.657,188.846 265.050,188.992 264.814 C 189.137 264.578,190.189 263.919,191.328 263.349 C 192.468 262.780,193.850 261.905,194.400 261.405 C 194.950 260.905,196.074 260.281,196.899 260.018 C 197.723 259.754,199.118 258.937,199.999 258.201 C 200.879 257.466,202.121 256.749,202.758 256.609 C 203.396 256.469,204.251 255.980,204.659 255.523 C 205.066 255.065,206.498 254.195,207.841 253.589 C 209.183 252.983,210.379 252.231,210.499 251.919 C 210.619 251.607,211.458 251.129,212.365 250.858 C 213.272 250.586,214.595 249.861,215.307 249.245 C 216.018 248.630,217.635 247.658,218.900 247.086 C 220.165 246.513,221.200 245.882,221.200 245.683 C 221.200 245.484,221.965 244.991,222.900 244.588 C 223.835 244.184,225.050 243.449,225.600 242.955 C 226.150 242.460,227.619 241.676,228.864 241.212 C 230.120 240.745,231.399 239.956,231.737 239.440 C 232.072 238.929,232.853 238.409,233.473 238.284 C 234.093 238.160,235.230 237.596,236.000 237.031 C 236.770 236.465,238.331 235.561,239.470 235.020 C 240.608 234.479,241.688 233.771,241.870 233.447 C 242.051 233.123,243.082 232.479,244.161 232.017 C 245.239 231.555,246.730 230.642,247.474 229.988 C 248.219 229.335,249.101 228.800,249.434 228.800 C 250.339 228.800,252.529 227.582,253.114 226.752 C 253.397 226.351,254.324 225.815,255.174 225.561 C 256.023 225.306,257.176 224.673,257.736 224.154 C 258.296 223.635,259.727 222.780,260.915 222.254 C 262.104 221.729,263.180 221.028,263.307 220.697 C 263.434 220.367,264.376 219.811,265.401 219.462 C 266.426 219.112,267.886 218.281,268.646 217.613 C 269.406 216.946,270.265 216.400,270.555 216.400 C 270.844 216.400,272.315 215.590,273.822 214.600 C 275.329 213.610,276.804 212.800,277.099 212.800 C 277.395 212.800,278.084 212.353,278.631 211.806 C 279.177 211.259,280.475 210.446,281.513 209.999 C 283.379 209.197,286.323 206.046,287.482 203.612 C 288.510 201.454,287.667 194.400,286.381 194.400 C 286.199 194.400,285.477 193.603,284.778 192.629 C 283.886 191.387,282.893 190.596,281.453 189.981 C 280.324 189.498,279.251 188.847,279.070 188.533 C 278.888 188.220,277.808 187.547,276.670 187.039 C 275.531 186.531,274.264 185.737,273.853 185.274 C 273.442 184.812,272.253 184.150,271.210 183.803 C 270.168 183.457,268.903 182.736,268.400 182.200 C 267.897 181.664,266.598 180.932,265.514 180.571 C 264.430 180.211,263.438 179.643,263.310 179.309 C 263.182 178.975,262.104 178.271,260.915 177.746 C 259.727 177.220,258.296 176.365,257.736 175.846 C 257.176 175.327,256.023 174.694,255.174 174.439 C 254.324 174.185,253.397 173.649,253.114 173.248 C 252.529 172.418,250.339 171.200,249.434 171.200 C 249.101 171.200,248.219 170.665,247.474 170.012 C 246.730 169.358,245.239 168.445,244.161 167.983 C 243.082 167.521,242.051 166.877,241.870 166.553 C 241.688 166.229,240.608 165.521,239.470 164.980 C 238.331 164.439,236.770 163.535,236.000 162.969 C 235.230 162.404,234.093 161.840,233.473 161.716 C 232.853 161.591,232.072 161.071,231.737 160.560 C 231.399 160.044,230.120 159.255,228.864 158.788 C 227.619 158.324,226.150 157.540,225.600 157.045 C 225.050 156.551,223.835 155.816,222.900 155.412 C 221.965 155.009,221.200 154.516,221.200 154.317 C 221.200 154.118,220.165 153.487,218.900 152.914 C 217.635 152.342,216.018 151.370,215.307 150.755 C 214.595 150.139,213.280 149.416,212.383 149.148 C 211.486 148.879,210.589 148.353,210.388 147.978 C 210.187 147.603,209.262 146.992,208.332 146.619 C 207.401 146.247,206.048 145.423,205.325 144.788 C 204.602 144.153,203.321 143.448,202.479 143.221 C 201.637 142.995,200.527 142.361,200.014 141.815 C 199.500 141.268,198.252 140.516,197.240 140.144 C 196.228 139.773,194.950 139.067,194.400 138.577 C 193.850 138.087,192.468 137.220,191.328 136.651 C 190.189 136.081,189.137 135.422,188.992 135.186 C 188.846 134.950,187.798 134.343,186.663 133.836 C 185.528 133.330,184.255 132.528,183.834 132.054 C 183.413 131.580,182.183 130.929,181.101 130.608 C 180.019 130.286,178.809 129.611,178.413 129.107 C 178.017 128.603,176.789 127.866,175.684 127.469 C 174.580 127.072,173.362 126.400,172.977 125.975 C 172.593 125.551,171.361 124.752,170.239 124.201 C 169.118 123.649,167.588 122.748,166.841 122.199 C 166.093 121.650,165.186 121.200,164.824 121.200 C 164.463 121.200,163.519 120.589,162.727 119.842 C 161.638 118.814,160.607 118.329,158.493 117.848 C 156.957 117.499,155.452 117.136,155.150 117.041 C 154.847 116.947,153.311 117.202,151.735 117.610 M158.200 118.617 C 159.503 118.956,161.206 119.721,161.984 120.316 C 162.763 120.911,164.233 121.785,165.251 122.258 C 166.269 122.731,167.234 123.331,167.395 123.592 C 167.556 123.853,168.523 124.423,169.544 124.860 C 170.565 125.297,171.762 125.993,172.205 126.407 C 172.648 126.822,173.908 127.551,175.005 128.027 C 176.102 128.504,177.450 129.296,178.000 129.787 C 178.550 130.278,179.810 130.992,180.800 131.372 C 181.790 131.753,182.960 132.389,183.400 132.787 C 183.840 133.184,185.010 133.910,186.000 134.400 C 186.990 134.890,188.162 135.621,188.605 136.026 C 189.048 136.431,190.128 137.061,191.005 137.428 C 191.882 137.794,193.191 138.613,193.914 139.247 C 194.637 139.881,195.467 140.400,195.760 140.400 C 196.053 140.400,197.351 141.120,198.646 141.999 C 199.941 142.879,201.188 143.599,201.419 143.599 C 201.649 143.600,203.071 144.410,204.578 145.400 C 206.085 146.390,207.534 147.200,207.797 147.200 C 208.061 147.200,208.619 147.581,209.038 148.047 C 209.457 148.512,210.760 149.319,211.934 149.840 C 213.108 150.360,214.592 151.227,215.232 151.765 C 215.872 152.304,216.802 152.870,217.298 153.023 C 217.794 153.176,219.010 153.878,220.000 154.583 C 220.990 155.287,222.379 156.094,223.087 156.375 C 223.794 156.656,224.604 157.164,224.887 157.505 C 225.169 157.845,226.480 158.608,227.800 159.200 C 229.120 159.792,230.424 160.547,230.698 160.877 C 230.971 161.207,231.961 161.813,232.898 162.223 C 233.834 162.634,235.391 163.562,236.358 164.285 C 237.324 165.008,238.345 165.600,238.627 165.600 C 238.908 165.600,239.677 166.053,240.334 166.606 C 240.992 167.159,242.518 168.064,243.725 168.617 C 244.933 169.170,246.156 169.906,246.444 170.253 C 246.732 170.600,247.918 171.304,249.079 171.818 C 250.240 172.331,251.777 173.191,252.495 173.729 C 253.213 174.267,254.206 174.830,254.702 174.981 C 255.198 175.132,256.129 175.696,256.769 176.236 C 257.410 176.775,258.735 177.570,259.714 178.003 C 260.693 178.436,261.743 179.092,262.047 179.460 C 262.351 179.828,263.590 180.565,264.800 181.098 C 266.010 181.631,267.362 182.403,267.805 182.814 C 268.248 183.225,269.328 183.858,270.205 184.220 C 271.082 184.582,272.340 185.285,273.000 185.783 C 273.660 186.280,275.100 187.169,276.200 187.759 C 277.300 188.348,278.779 189.229,279.487 189.715 C 280.195 190.202,281.347 190.960,282.047 191.400 C 289.163 195.872,288.482 205.507,280.773 209.413 C 279.719 209.948,278.740 210.573,278.599 210.802 C 278.457 211.032,277.139 211.859,275.670 212.640 C 271.033 215.105,268.507 216.579,267.742 217.265 C 267.334 217.631,266.010 218.367,264.800 218.900 C 263.590 219.434,262.351 220.172,262.047 220.540 C 261.743 220.908,260.693 221.564,259.714 221.997 C 258.735 222.430,257.410 223.225,256.769 223.764 C 256.129 224.304,255.198 224.868,254.702 225.019 C 254.206 225.170,253.213 225.733,252.495 226.271 C 251.777 226.809,250.240 227.669,249.079 228.182 C 247.918 228.696,246.732 229.400,246.444 229.747 C 246.156 230.094,244.908 230.841,243.671 231.408 C 242.434 231.974,241.084 232.744,240.671 233.119 C 240.258 233.493,239.236 234.160,238.400 234.600 C 235.896 235.918,232.805 237.743,231.462 238.696 C 230.768 239.188,229.120 240.106,227.800 240.734 C 226.480 241.363,225.169 242.155,224.887 242.495 C 224.604 242.836,223.794 243.344,223.087 243.625 C 222.379 243.906,220.990 244.713,220.000 245.417 C 219.010 246.122,217.794 246.824,217.298 246.977 C 216.802 247.130,215.872 247.696,215.232 248.235 C 214.592 248.773,213.100 249.642,211.918 250.165 C 210.735 250.688,209.526 251.407,209.231 251.762 C 208.936 252.118,207.911 252.756,206.954 253.179 C 205.997 253.603,204.608 254.411,203.869 254.975 C 203.129 255.539,202.343 256.000,202.122 256.000 C 201.900 256.000,200.485 256.810,198.978 257.800 C 197.471 258.790,196.010 259.600,195.733 259.600 C 195.455 259.600,194.637 260.119,193.914 260.753 C 193.191 261.387,191.882 262.206,191.005 262.572 C 190.128 262.939,189.048 263.569,188.605 263.974 C 188.162 264.379,186.990 265.110,186.000 265.600 C 185.010 266.090,183.840 266.816,183.400 267.213 C 182.960 267.611,181.790 268.247,180.800 268.628 C 179.810 269.008,178.550 269.729,178.000 270.229 C 177.450 270.729,176.190 271.449,175.200 271.829 C 174.210 272.209,172.950 272.933,172.400 273.439 C 171.850 273.944,170.763 274.624,169.985 274.949 C 169.207 275.274,167.614 276.183,166.445 276.970 C 165.276 277.756,164.109 278.400,163.851 278.400 C 163.593 278.400,162.756 278.913,161.991 279.540 C 158.571 282.343,151.423 282.683,148.453 280.183 C 147.826 279.656,146.658 277.880,145.857 276.237 L 144.400 273.249 144.400 200.000 L 144.400 126.751 145.831 123.816 C 148.431 118.484,151.973 116.995,158.200 118.617  M -25 0 L -5 0 L -5 20 L -25 20 Z M 405 0 L 425 0 L 425 20 L 405 20 Z" stroke="none" fill="#949cec" fill-rule="evenodd" transform="translate(490,0)"></path><path id="path2" d="M28.181 45.630 C 28.037 45.864,27.697 45.969,27.426 45.865 C 27.105 45.742,26.933 46.082,26.933 46.838 C 26.933 48.375,27.032 48.328,23.597 48.421 C 20.870 48.494,20.485 48.609,19.328 49.702 C 18.295 50.677,18.076 50.761,18.166 50.151 C 18.227 49.738,18.469 49.400,18.705 49.400 C 18.940 49.400,19.283 49.248,19.467 49.062 C 19.650 48.876,19.350 48.786,18.800 48.862 C 18.043 48.966,17.769 49.273,17.671 50.124 C 17.534 51.318,17.289 51.492,15.411 51.720 C 14.384 51.845,14.212 52.041,14.156 53.153 C 14.076 54.754,14.090 54.742,12.271 54.864 C 9.854 55.027,8.342 56.577,8.096 59.145 C 7.902 61.157,7.844 61.248,6.908 61.013 C 5.590 60.682,4.800 61.420,4.800 62.980 C 4.800 64.165,4.713 64.249,3.647 64.092 C 2.415 63.911,1.822 64.450,1.768 65.800 C 1.751 66.240,1.706 67.455,1.668 68.500 C 1.610 70.111,1.478 70.400,0.800 70.400 C 0.002 70.400,0.000 70.667,0.000 200.000 C 0.000 329.333,0.002 329.600,0.800 329.600 C 1.478 329.600,1.610 329.889,1.668 331.500 C 1.706 332.545,1.751 333.760,1.768 334.200 C 1.822 335.550,2.415 336.089,3.647 335.908 C 4.713 335.751,4.800 335.835,4.800 337.020 C 4.800 338.606,5.588 339.319,6.962 338.974 C 7.953 338.725,8.000 338.787,8.000 340.357 C 8.000 341.665,8.145 342.000,8.711 342.000 C 9.583 342.000,10.800 343.353,10.800 344.323 C 10.800 344.862,11.164 345.061,12.285 345.136 C 14.087 345.258,14.051 345.225,14.133 346.834 C 14.191 347.961,14.360 348.153,15.400 348.279 C 17.236 348.502,17.600 348.710,17.600 349.538 C 17.600 350.863,18.653 351.266,22.685 351.486 C 27.169 351.731,26.933 351.638,26.933 353.162 C 26.933 353.918,27.105 354.258,27.426 354.135 C 27.697 354.031,28.037 354.136,28.181 354.369 C 28.656 355.138,371.380 354.947,372.019 354.177 C 372.362 353.764,372.617 353.705,372.798 353.997 C 372.946 354.236,373.067 353.884,373.067 353.216 C 373.067 351.630,372.818 351.732,377.315 351.486 C 381.347 351.266,382.400 350.863,382.400 349.538 C 382.400 348.710,382.764 348.502,384.600 348.279 C 385.640 348.153,385.809 347.961,385.867 346.834 C 385.949 345.224,385.911 345.258,387.729 345.136 C 390.146 344.973,391.658 343.423,391.904 340.855 C 392.098 338.843,392.156 338.752,393.092 338.987 C 394.410 339.318,395.200 338.580,395.200 337.020 C 395.200 335.835,395.287 335.751,396.353 335.908 C 397.640 336.097,398.183 335.543,398.223 334.000 C 398.334 329.838,398.387 329.600,399.200 329.600 C 399.998 329.600,400.000 329.333,400.000 200.000 C 400.000 70.667,399.998 70.400,399.200 70.400 C 398.522 70.400,398.390 70.111,398.332 68.500 C 398.294 67.455,398.249 66.240,398.232 65.800 C 398.178 64.450,397.585 63.911,396.353 64.092 C 395.287 64.249,395.200 64.165,395.200 62.980 C 395.200 61.420,394.410 60.682,393.092 61.013 C 392.156 61.248,392.098 61.157,391.904 59.145 C 391.658 56.577,390.146 55.027,387.729 54.864 C 385.911 54.742,385.949 54.776,385.867 53.166 C 385.809 52.039,385.640 51.847,384.600 51.721 C 382.764 51.498,382.400 51.290,382.400 50.462 C 382.400 49.139,381.348 48.736,377.316 48.513 C 372.826 48.264,373.067 48.359,373.067 46.838 C 373.067 46.082,372.895 45.742,372.574 45.865 C 372.303 45.969,371.963 45.864,371.819 45.631 C 371.450 45.033,28.551 45.032,28.181 45.630 M381.371 49.829 C 381.717 50.174,381.995 50.669,381.988 50.929 C 381.981 51.188,381.795 51.091,381.575 50.713 C 381.355 50.335,380.865 49.845,380.487 49.625 C 380.109 49.405,380.012 49.219,380.271 49.212 C 380.531 49.205,381.026 49.483,381.371 49.829 M10.708 57.275 C 10.621 57.536,10.336 57.821,10.075 57.908 C 9.782 58.006,9.693 57.823,9.843 57.433 C 10.122 56.706,10.948 56.555,10.708 57.275 M390.157 57.433 C 390.307 57.823,390.218 58.006,389.925 57.908 C 389.327 57.709,388.998 56.800,389.524 56.800 C 389.739 56.800,390.024 57.085,390.157 57.433 M158.148 116.351 C 158.627 116.801,159.962 117.372,161.115 117.619 C 162.720 117.963,163.339 118.313,163.758 119.115 C 164.174 119.907,164.875 120.311,166.648 120.781 C 168.469 121.264,169.104 121.638,169.500 122.467 C 169.888 123.276,170.415 123.600,171.696 123.816 C 172.829 124.008,173.820 124.540,174.720 125.440 C 175.456 126.176,176.681 126.950,177.442 127.161 C 178.203 127.371,179.315 128.067,179.914 128.708 C 180.584 129.425,181.619 129.988,182.602 130.171 C 184.307 130.488,185.600 131.386,185.600 132.254 C 185.600 132.546,186.095 132.891,186.700 133.020 C 188.984 133.509,190.528 134.227,190.956 135.000 C 191.553 136.076,192.031 136.387,193.099 136.394 C 193.593 136.397,194.681 137.017,195.516 137.772 C 196.351 138.526,197.566 139.267,198.217 139.419 C 199.956 139.825,201.200 140.717,201.200 141.557 C 201.200 142.136,201.589 142.340,202.994 142.498 C 205.018 142.726,206.804 143.730,207.083 144.795 C 207.203 145.255,207.797 145.593,208.753 145.746 C 209.603 145.882,210.912 146.561,211.819 147.338 C 212.690 148.083,214.006 148.826,214.743 148.988 C 215.601 149.176,216.314 149.682,216.720 150.390 C 217.198 151.222,217.856 151.614,219.360 151.961 C 221.445 152.443,222.800 153.346,222.800 154.254 C 222.800 154.546,223.295 154.893,223.900 155.025 C 225.958 155.474,227.226 156.106,227.973 157.056 C 228.383 157.577,229.321 158.115,230.059 158.250 C 230.821 158.391,231.929 159.055,232.626 159.790 C 233.404 160.611,234.427 161.191,235.426 161.377 C 237.249 161.718,237.946 162.207,238.432 163.484 C 238.662 164.088,239.108 164.400,239.741 164.400 C 241.237 164.400,243.418 165.462,244.119 166.532 C 244.502 167.118,245.312 167.607,246.161 167.766 C 247.048 167.933,247.860 168.442,248.362 169.147 C 248.955 169.980,249.733 170.392,251.428 170.771 C 253.358 171.203,253.765 171.454,254.137 172.440 C 254.378 173.078,254.864 173.600,255.216 173.600 C 256.766 173.600,259.508 174.879,259.926 175.797 C 260.214 176.430,260.825 176.843,261.717 177.011 C 262.462 177.151,263.752 177.871,264.584 178.611 C 265.417 179.352,266.661 180.077,267.349 180.224 C 268.769 180.525,270.000 181.468,270.000 182.254 C 270.000 182.546,270.495 182.886,271.100 183.011 C 274.367 183.681,275.217 184.072,275.780 185.161 C 276.223 186.018,276.750 186.354,277.951 186.546 C 278.959 186.707,279.989 187.250,280.774 188.036 C 281.454 188.716,282.503 189.403,283.105 189.563 C 283.707 189.724,284.617 190.473,285.126 191.227 C 285.635 191.982,286.488 192.830,287.021 193.110 C 289.468 194.399,289.277 206.214,286.796 207.001 C 286.353 207.142,285.711 207.798,285.369 208.460 C 285.013 209.149,284.134 209.919,283.311 210.263 C 282.522 210.593,281.350 211.389,280.707 212.032 C 279.992 212.746,278.932 213.297,277.979 213.450 C 276.847 213.631,276.140 214.065,275.402 215.033 C 274.686 215.971,273.943 216.441,272.892 216.618 C 270.507 217.020,270.000 217.222,270.000 217.765 C 270.000 218.534,268.756 219.478,267.349 219.776 C 266.661 219.923,265.417 220.648,264.584 221.389 C 263.752 222.129,262.462 222.849,261.717 222.989 C 260.825 223.157,260.214 223.570,259.926 224.203 C 259.508 225.121,256.766 226.400,255.216 226.400 C 254.864 226.400,254.378 226.922,254.137 227.560 C 253.765 228.546,253.358 228.797,251.428 229.229 C 249.733 229.608,248.955 230.020,248.362 230.853 C 247.860 231.558,247.048 232.067,246.161 232.234 C 245.312 232.393,244.502 232.882,244.119 233.468 C 243.418 234.538,241.237 235.600,239.741 235.600 C 239.108 235.600,238.662 235.912,238.432 236.516 C 237.946 237.793,237.249 238.282,235.426 238.623 C 234.427 238.809,233.404 239.389,232.626 240.210 C 231.929 240.945,230.821 241.609,230.059 241.750 C 229.321 241.885,228.383 242.423,227.973 242.944 C 227.239 243.877,225.968 244.521,224.000 244.956 C 223.450 245.078,222.703 245.706,222.340 246.351 C 221.816 247.283,221.237 247.624,219.521 248.008 C 217.850 248.382,217.218 248.743,216.723 249.604 C 216.314 250.318,215.603 250.824,214.743 251.012 C 214.006 251.174,212.690 251.917,211.819 252.662 C 210.939 253.415,209.601 254.118,208.804 254.246 C 207.786 254.408,207.183 254.803,206.721 255.609 C 206.074 256.736,204.083 257.593,202.100 257.598 C 201.471 257.599,201.200 257.838,201.200 258.391 C 201.200 259.278,199.989 260.167,198.217 260.581 C 197.566 260.733,196.351 261.474,195.516 262.228 C 194.681 262.983,193.593 263.603,193.099 263.606 C 192.031 263.613,191.553 263.924,190.956 265.000 C 190.528 265.773,188.984 266.491,186.700 266.980 C 186.095 267.109,185.600 267.454,185.600 267.746 C 185.600 268.614,184.307 269.512,182.602 269.829 C 181.619 270.012,180.584 270.575,179.914 271.292 C 179.315 271.933,178.165 272.640,177.358 272.863 C 176.552 273.085,175.463 273.776,174.940 274.398 C 174.327 275.127,173.273 275.712,171.978 276.044 C 170.500 276.423,169.838 276.830,169.479 277.579 C 169.107 278.355,168.431 278.746,166.648 279.219 C 164.875 279.689,164.174 280.093,163.758 280.885 C 163.344 281.677,162.722 282.036,161.202 282.362 C 160.097 282.599,158.479 283.266,157.606 283.844 C 155.373 285.321,151.007 284.977,150.336 283.271 C 150.261 283.081,149.391 282.672,148.402 282.362 C 147.101 281.956,146.437 281.468,146.002 280.600 C 145.671 279.940,144.815 278.829,144.100 278.131 L 142.800 276.862 142.800 200.000 L 142.800 123.138 144.100 121.869 C 144.815 121.171,145.671 120.060,146.002 119.400 C 146.431 118.543,147.104 118.041,148.357 117.645 C 149.321 117.339,150.441 116.759,150.845 116.355 C 151.249 115.951,152.079 115.510,152.690 115.375 C 153.300 115.240,153.980 115.085,154.200 115.031 C 155.059 114.817,157.321 115.574,158.148 116.351 M390.145 342.600 C 389.901 343.234,389.200 343.432,389.200 342.867 C 389.200 342.444,389.637 342.000,390.054 342.000 C 390.231 342.000,390.271 342.270,390.145 342.600 M19.513 350.375 C 19.891 350.595,19.988 350.781,19.729 350.788 C 19.119 350.804,17.996 349.681,18.012 349.071 C 18.019 348.812,18.205 348.909,18.425 349.287 C 18.645 349.665,19.135 350.155,19.513 350.375 M382.000 349.171 C 382.000 349.645,380.856 350.800,380.386 350.800 C 380.189 350.800,380.427 350.369,380.914 349.842 C 381.958 348.713,382.000 348.688,382.000 349.171  M -25 0 L -5 0 L -5 20 L -25 20 Z M 405 0 L 425 0 L 425 20 L 405 20 Z" stroke="none" fill="#545ce4" fill-rule="evenodd" transform="translate(950,0)"></path><path id="path3" d="M151.088 118.568 C 148.588 119.241,147.564 120.263,145.831 123.816 L 144.400 126.751 144.400 200.000 L 144.400 273.249 145.857 276.237 C 146.658 277.880,147.826 279.656,148.453 280.183 C 151.423 282.683,158.571 282.343,161.991 279.540 C 162.756 278.913,163.593 278.400,163.851 278.400 C 164.109 278.400,165.276 277.756,166.445 276.970 C 167.614 276.183,169.207 275.274,169.985 274.949 C 170.763 274.624,171.850 273.944,172.400 273.439 C 172.950 272.933,174.210 272.209,175.200 271.829 C 176.190 271.449,177.450 270.729,178.000 270.229 C 178.550 269.729,179.810 269.008,180.800 268.628 C 181.790 268.247,182.960 267.611,183.400 267.213 C 183.840 266.816,185.010 266.090,186.000 265.600 C 186.990 265.110,188.162 264.379,188.605 263.974 C 189.048 263.569,190.128 262.939,191.005 262.572 C 191.882 262.206,193.191 261.387,193.914 260.753 C 194.637 260.119,195.455 259.600,195.733 259.600 C 196.010 259.600,197.471 258.790,198.978 257.800 C 200.485 256.810,201.900 256.000,202.122 256.000 C 202.343 256.000,203.129 255.539,203.869 254.975 C 204.608 254.411,205.997 253.603,206.954 253.179 C 207.911 252.756,208.936 252.118,209.231 251.762 C 209.526 251.407,210.735 250.688,211.918 250.165 C 213.100 249.642,214.592 248.773,215.232 248.235 C 215.872 247.696,216.802 247.130,217.298 246.977 C 217.794 246.824,219.010 246.122,220.000 245.417 C 220.990 244.713,222.379 243.906,223.087 243.625 C 223.794 243.344,224.604 242.836,224.887 242.495 C 225.169 242.155,226.480 241.363,227.800 240.734 C 229.120 240.106,230.768 239.188,231.462 238.696 C 232.805 237.743,235.896 235.918,238.400 234.600 C 239.236 234.160,240.258 233.493,240.671 233.119 C 241.084 232.744,242.434 231.974,243.671 231.408 C 244.908 230.841,246.156 230.094,246.444 229.747 C 246.732 229.400,247.918 228.696,249.079 228.182 C 250.240 227.669,251.777 226.809,252.495 226.271 C 253.213 225.733,254.206 225.170,254.702 225.019 C 255.198 224.868,256.129 224.304,256.769 223.764 C 257.410 223.225,258.735 222.430,259.714 221.997 C 260.693 221.564,261.743 220.908,262.047 220.540 C 262.351 220.172,263.590 219.434,264.800 218.900 C 266.010 218.367,267.334 217.631,267.742 217.265 C 268.507 216.579,271.033 215.105,275.670 212.640 C 277.139 211.859,278.457 211.032,278.599 210.802 C 278.740 210.573,279.719 209.948,280.773 209.413 C 288.482 205.507,289.163 195.872,282.047 191.400 C 281.347 190.960,280.195 190.202,279.487 189.715 C 278.779 189.229,277.300 188.348,276.200 187.759 C 275.100 187.169,273.660 186.280,273.000 185.783 C 272.340 185.285,271.082 184.582,270.205 184.220 C 269.328 183.858,268.248 183.225,267.805 182.814 C 267.362 182.403,266.010 181.631,264.800 181.098 C 263.590 180.565,262.351 179.828,262.047 179.460 C 261.743 179.092,260.693 178.436,259.714 178.003 C 258.735 177.570,257.410 176.775,256.769 176.236 C 256.129 175.696,255.198 175.132,254.702 174.981 C 254.206 174.830,253.213 174.267,252.495 173.729 C 251.777 173.191,250.240 172.331,249.079 171.818 C 247.918 171.304,246.732 170.600,246.444 170.253 C 246.156 169.906,244.933 169.170,243.725 168.617 C 242.518 168.064,240.992 167.159,240.334 166.606 C 239.677 166.053,238.908 165.600,238.627 165.600 C 238.345 165.600,237.324 165.008,236.358 164.285 C 235.391 163.562,233.834 162.634,232.898 162.223 C 231.961 161.813,230.971 161.207,230.698 160.877 C 230.424 160.547,229.120 159.792,227.800 159.200 C 226.480 158.608,225.169 157.845,224.887 157.505 C 224.604 157.164,223.794 156.656,223.087 156.375 C 222.379 156.094,220.990 155.287,220.000 154.583 C 219.010 153.878,217.794 153.176,217.298 153.023 C 216.802 152.870,215.872 152.304,215.232 151.765 C 214.592 151.227,213.108 150.360,211.934 149.840 C 210.760 149.319,209.457 148.512,209.038 148.047 C 208.619 147.581,208.061 147.200,207.797 147.200 C 207.534 147.200,206.085 146.390,204.578 145.400 C 203.071 144.410,201.649 143.600,201.419 143.599 C 201.188 143.599,199.941 142.879,198.646 141.999 C 197.351 141.120,196.053 140.400,195.760 140.400 C 195.467 140.400,194.637 139.881,193.914 139.247 C 193.191 138.613,191.882 137.794,191.005 137.428 C 190.128 137.061,189.048 136.431,188.605 136.026 C 188.162 135.621,186.990 134.890,186.000 134.400 C 185.010 133.910,183.840 133.184,183.400 132.787 C 182.960 132.389,181.790 131.753,180.800 131.372 C 179.810 130.992,178.550 130.278,178.000 129.787 C 177.450 129.296,176.102 128.504,175.005 128.027 C 173.908 127.551,172.648 126.822,172.205 126.407 C 171.762 125.993,170.565 125.297,169.544 124.860 C 168.523 124.423,167.556 123.853,167.395 123.592 C 167.234 123.331,166.269 122.731,165.251 122.258 C 164.233 121.785,162.763 120.911,161.984 120.316 C 159.348 118.301,154.798 117.571,151.088 118.568 M160.135 120.710 C 161.086 121.393,162.620 122.255,163.544 122.624 C 164.468 122.994,165.400 123.625,165.615 124.028 C 165.830 124.430,167.102 125.159,168.442 125.647 C 169.781 126.136,170.977 126.797,171.100 127.117 C 171.223 127.437,172.331 128.141,173.562 128.681 C 174.793 129.222,176.250 130.078,176.800 130.584 C 177.350 131.090,178.448 131.710,179.241 131.963 C 180.033 132.216,181.270 132.948,181.989 133.590 C 182.708 134.232,183.815 134.872,184.449 135.011 C 185.082 135.150,186.321 135.866,187.201 136.601 C 188.082 137.337,189.476 138.161,190.300 138.433 C 191.124 138.705,192.276 139.439,192.860 140.064 C 193.443 140.689,194.292 141.200,194.747 141.200 C 195.201 141.200,196.206 141.756,196.980 142.436 C 197.754 143.116,199.328 144.030,200.477 144.466 C 201.627 144.903,202.799 145.592,203.083 145.997 C 203.366 146.402,204.454 147.044,205.499 147.424 C 206.545 147.804,207.761 148.531,208.201 149.040 C 208.642 149.549,209.788 150.243,210.747 150.581 C 211.706 150.920,213.115 151.745,213.878 152.415 C 214.641 153.085,215.776 153.735,216.399 153.860 C 217.023 153.985,218.027 154.602,218.631 155.233 C 219.235 155.863,220.602 156.668,221.668 157.023 C 222.735 157.377,223.785 157.999,224.002 158.404 C 224.219 158.810,225.432 159.527,226.698 159.998 C 227.964 160.470,229.450 161.276,230.000 161.791 C 230.550 162.305,231.640 162.989,232.422 163.310 C 233.205 163.631,234.347 164.360,234.961 164.929 C 235.575 165.498,236.735 166.173,237.539 166.430 C 238.342 166.687,239.450 167.313,240.000 167.823 C 240.550 168.332,241.810 169.097,242.800 169.522 C 243.790 169.948,244.944 170.680,245.364 171.150 C 245.783 171.619,246.787 172.181,247.593 172.398 C 248.400 172.615,249.856 173.403,250.830 174.149 C 251.803 174.894,253.259 175.715,254.065 175.972 C 254.870 176.228,255.634 176.711,255.761 177.043 C 255.889 177.375,257.120 178.158,258.497 178.783 C 259.875 179.407,261.335 180.286,261.742 180.736 C 262.150 181.186,262.991 181.666,263.612 181.803 C 264.233 181.939,265.160 182.464,265.671 182.970 C 266.747 184.034,268.888 185.200,269.766 185.200 C 270.100 185.200,270.904 185.719,271.553 186.354 C 272.203 186.989,273.576 187.830,274.605 188.223 C 275.634 188.616,276.985 189.447,277.607 190.069 C 278.229 190.691,279.033 191.200,279.393 191.200 C 280.165 191.200,284.400 195.094,284.400 195.804 C 284.400 196.072,284.760 196.750,285.200 197.309 C 285.711 197.958,286.000 198.932,286.000 200.000 C 286.000 201.068,285.711 202.042,285.200 202.691 C 284.760 203.250,284.400 203.928,284.400 204.196 C 284.400 204.906,280.165 208.800,279.393 208.800 C 279.033 208.800,278.213 209.325,277.571 209.967 C 276.929 210.609,275.527 211.426,274.455 211.782 C 273.383 212.138,272.031 212.962,271.450 213.614 C 270.869 214.267,270.116 214.800,269.777 214.800 C 268.903 214.800,266.758 215.955,265.713 216.989 C 265.224 217.471,264.090 218.086,263.191 218.355 C 262.293 218.625,261.455 219.113,261.329 219.441 C 261.203 219.769,259.973 220.548,258.595 221.173 C 257.218 221.798,255.932 222.592,255.738 222.939 C 255.544 223.286,254.603 223.846,253.647 224.183 C 252.692 224.520,251.302 225.330,250.560 225.981 C 249.818 226.633,248.521 227.352,247.679 227.579 C 246.837 227.805,245.728 228.438,245.215 228.984 C 244.702 229.530,243.634 230.183,242.841 230.436 C 242.049 230.688,240.860 231.384,240.200 231.982 C 239.540 232.581,238.145 233.384,237.099 233.768 C 236.054 234.152,234.960 234.808,234.667 235.225 C 234.375 235.643,233.430 236.274,232.568 236.629 C 231.706 236.984,230.550 237.695,230.000 238.209 C 229.450 238.724,227.964 239.530,226.698 240.002 C 225.432 240.473,224.219 241.190,224.002 241.596 C 223.785 242.001,222.735 242.623,221.668 242.977 C 220.602 243.332,219.235 244.137,218.631 244.767 C 218.027 245.398,217.023 246.015,216.399 246.140 C 215.776 246.265,214.635 246.920,213.865 247.597 C 213.094 248.273,211.652 249.103,210.659 249.442 C 209.667 249.780,208.591 250.460,208.268 250.953 C 207.945 251.446,206.897 252.079,205.940 252.361 C 204.983 252.642,203.660 253.375,203.000 253.989 C 202.340 254.603,201.126 255.320,200.301 255.583 C 199.477 255.846,198.065 256.677,197.163 257.431 C 196.262 258.184,195.164 258.800,194.723 258.800 C 194.282 258.800,193.443 259.311,192.860 259.936 C 192.276 260.561,191.124 261.295,190.300 261.567 C 189.476 261.839,188.082 262.663,187.201 263.399 C 186.321 264.134,185.082 264.850,184.449 264.989 C 183.815 265.128,182.708 265.768,181.989 266.410 C 181.270 267.052,180.033 267.784,179.241 268.037 C 178.448 268.290,177.350 268.910,176.800 269.416 C 176.250 269.922,174.763 270.791,173.495 271.348 C 172.227 271.905,171.091 272.619,170.969 272.936 C 170.848 273.253,169.681 273.901,168.377 274.376 C 167.073 274.852,165.826 275.577,165.606 275.988 C 165.386 276.399,164.530 276.950,163.703 277.212 C 162.876 277.473,161.507 278.231,160.660 278.895 C 157.145 281.650,151.460 281.465,148.678 278.505 C 146.302 275.976,146.409 279.683,146.409 200.000 C 146.409 120.316,146.302 124.023,148.678 121.496 C 151.272 118.737,156.854 118.354,160.135 120.710  M -25 0 L -5 0 L -5 20 L -25 20 Z M 405 0 L 425 0 L 425 20 L 405 20 Z" stroke="none" fill="#b4bcf4" fill-rule="evenodd" transform="translate(30,460)"></path><path id="path4" d="M31.700 45.476 C 32.085 45.576,32.715 45.576,33.100 45.476 C 33.485 45.375,33.170 45.293,32.400 45.293 C 31.630 45.293,31.315 45.375,31.700 45.476 M366.900 45.476 C 367.285 45.576,367.915 45.576,368.300 45.476 C 368.685 45.375,368.370 45.293,367.600 45.293 C 366.830 45.293,366.515 45.375,366.900 45.476 M380.487 49.625 C 380.865 49.845,381.355 50.335,381.575 50.713 C 381.795 51.091,381.981 51.188,381.988 50.929 C 382.004 50.319,380.881 49.196,380.271 49.212 C 380.012 49.219,380.109 49.405,380.487 49.625 M9.843 57.433 C 9.693 57.823,9.782 58.006,10.075 57.908 C 10.673 57.709,11.002 56.800,10.476 56.800 C 10.261 56.800,9.976 57.085,9.843 57.433 M389.292 57.275 C 389.379 57.536,389.664 57.821,389.925 57.908 C 390.218 58.006,390.307 57.823,390.157 57.433 C 389.878 56.706,389.052 56.555,389.292 57.275 M154.200 115.031 C 153.980 115.085,153.300 115.240,152.690 115.375 C 152.079 115.510,151.249 115.951,150.845 116.355 C 150.441 116.759,149.321 117.339,148.357 117.645 C 147.104 118.041,146.431 118.543,146.002 119.400 C 145.671 120.060,144.815 121.171,144.100 121.869 L 142.800 123.138 142.800 200.000 L 142.800 276.862 144.100 278.131 C 144.815 278.829,145.671 279.940,146.002 280.600 C 146.437 281.468,147.101 281.956,148.402 282.362 C 149.391 282.672,150.261 283.081,150.336 283.271 C 151.007 284.977,155.373 285.321,157.606 283.844 C 158.479 283.266,160.097 282.599,161.202 282.362 C 162.722 282.036,163.344 281.677,163.758 280.885 C 164.174 280.093,164.875 279.689,166.648 279.219 C 168.431 278.746,169.107 278.355,169.479 277.579 C 169.838 276.830,170.500 276.423,171.978 276.044 C 173.273 275.712,174.327 275.127,174.940 274.398 C 175.463 273.776,176.552 273.085,177.358 272.863 C 178.165 272.640,179.315 271.933,179.914 271.292 C 180.584 270.575,181.619 270.012,182.602 269.829 C 184.307 269.512,185.600 268.614,185.600 267.746 C 185.600 267.454,186.095 267.109,186.700 266.980 C 188.984 266.491,190.528 265.773,190.956 265.000 C 191.553 263.924,192.031 263.613,193.099 263.606 C 193.593 263.603,194.681 262.983,195.516 262.228 C 196.351 261.474,197.566 260.733,198.217 260.581 C 199.989 260.167,201.200 259.278,201.200 258.391 C 201.200 257.838,201.471 257.599,202.100 257.598 C 204.083 257.593,206.074 256.736,206.721 255.609 C 207.183 254.803,207.786 254.408,208.804 254.246 C 209.601 254.118,210.939 253.415,211.819 252.662 C 212.690 251.917,214.006 251.174,214.743 251.012 C 215.603 250.824,216.314 250.318,216.723 249.604 C 217.218 248.743,217.850 248.382,219.521 248.008 C 221.237 247.624,221.816 247.283,222.340 246.351 C 222.703 245.706,223.450 245.078,224.000 244.956 C 225.968 244.521,227.239 243.877,227.973 242.944 C 228.383 242.423,229.321 241.885,230.059 241.750 C 230.821 241.609,231.929 240.945,232.626 240.210 C 233.404 239.389,234.427 238.809,235.426 238.623 C 237.249 238.282,237.946 237.793,238.432 236.516 C 238.662 235.912,239.108 235.600,239.741 235.600 C 241.237 235.600,243.418 234.538,244.119 233.468 C 244.502 232.882,245.312 232.393,246.161 232.234 C 247.048 232.067,247.860 231.558,248.362 230.853 C 248.955 230.020,249.733 229.608,251.428 229.229 C 253.358 228.797,253.765 228.546,254.137 227.560 C 254.378 226.922,254.864 226.400,255.216 226.400 C 256.766 226.400,259.508 225.121,259.926 224.203 C 260.214 223.570,260.825 223.157,261.717 222.989 C 262.462 222.849,263.752 222.129,264.584 221.389 C 265.417 220.648,266.661 219.923,267.349 219.776 C 268.756 219.478,270.000 218.534,270.000 217.765 C 270.000 217.222,270.507 217.020,272.892 216.618 C 273.943 216.441,274.686 215.971,275.402 215.033 C 276.140 214.065,276.847 213.631,277.979 213.450 C 278.932 213.297,279.992 212.746,280.707 212.032 C 281.350 211.389,282.522 210.593,283.311 210.263 C 284.134 209.919,285.013 209.149,285.369 208.460 C 285.711 207.798,286.353 207.142,286.796 207.001 C 289.277 206.214,289.468 194.399,287.021 193.110 C 286.488 192.830,285.635 191.982,285.126 191.227 C 284.617 190.473,283.707 189.724,283.105 189.563 C 282.503 189.403,281.454 188.716,280.774 188.036 C 279.989 187.250,278.959 186.707,277.951 186.546 C 276.750 186.354,276.223 186.018,275.780 185.161 C 275.217 184.072,274.367 183.681,271.100 183.011 C 270.495 182.886,270.000 182.546,270.000 182.254 C 270.000 181.468,268.769 180.525,267.349 180.224 C 266.661 180.077,265.417 179.352,264.584 178.611 C 263.752 177.871,262.462 177.151,261.717 177.011 C 260.825 176.843,260.214 176.430,259.926 175.797 C 259.508 174.879,256.766 173.600,255.216 173.600 C 254.864 173.600,254.378 173.078,254.137 172.440 C 253.765 171.454,253.358 171.203,251.428 170.771 C 249.733 170.392,248.955 169.980,248.362 169.147 C 247.860 168.442,247.048 167.933,246.161 167.766 C 245.312 167.607,244.502 167.118,244.119 166.532 C 243.418 165.462,241.237 164.400,239.741 164.400 C 239.108 164.400,238.662 164.088,238.432 163.484 C 237.946 162.207,237.249 161.718,235.426 161.377 C 234.427 161.191,233.404 160.611,232.626 159.790 C 231.929 159.055,230.821 158.391,230.059 158.250 C 229.321 158.115,228.383 157.577,227.973 157.056 C 227.226 156.106,225.958 155.474,223.900 155.025 C 223.295 154.893,222.800 154.546,222.800 154.254 C 222.800 153.346,221.445 152.443,219.360 151.961 C 217.856 151.614,217.198 151.222,216.720 150.390 C 216.314 149.682,215.601 149.176,214.743 148.988 C 214.006 148.826,212.690 148.083,211.819 147.338 C 210.912 146.561,209.603 145.882,208.753 145.746 C 207.797 145.593,207.203 145.255,207.083 144.795 C 206.804 143.730,205.018 142.726,202.994 142.498 C 201.589 142.340,201.200 142.136,201.200 141.557 C 201.200 140.717,199.956 139.825,198.217 139.419 C 197.566 139.267,196.351 138.526,195.516 137.772 C 194.681 137.017,193.593 136.397,193.099 136.394 C 192.031 136.387,191.553 136.076,190.956 135.000 C 190.528 134.227,188.984 133.509,186.700 133.020 C 186.095 132.891,185.600 132.546,185.600 132.254 C 185.600 131.386,184.307 130.488,182.602 130.171 C 181.619 129.988,180.584 129.425,179.914 128.708 C 179.315 128.067,178.203 127.371,177.442 127.161 C 176.681 126.950,175.456 126.176,174.720 125.440 C 173.820 124.540,172.829 124.008,171.696 123.816 C 170.415 123.600,169.888 123.276,169.500 122.467 C 169.104 121.638,168.469 121.264,166.648 120.781 C 164.875 120.311,164.174 119.907,163.758 119.115 C 163.339 118.313,162.720 117.963,161.115 117.619 C 159.962 117.372,158.627 116.801,158.148 116.351 C 157.321 115.574,155.059 114.817,154.200 115.031 M158.493 117.848 C 160.607 118.329,161.638 118.814,162.727 119.842 C 163.519 120.589,164.463 121.200,164.824 121.200 C 165.186 121.200,166.093 121.650,166.841 122.199 C 167.588 122.748,169.118 123.649,170.239 124.201 C 171.361 124.752,172.593 125.551,172.977 125.975 C 173.362 126.400,174.580 127.072,175.684 127.469 C 176.789 127.866,178.017 128.603,178.413 129.107 C 178.809 129.611,180.019 130.286,181.101 130.608 C 182.183 130.929,183.413 131.580,183.834 132.054 C 184.255 132.528,185.528 133.330,186.663 133.836 C 187.798 134.343,188.846 134.950,188.992 135.186 C 189.137 135.422,190.189 136.081,191.328 136.651 C 192.468 137.220,193.850 138.087,194.400 138.577 C 194.950 139.067,196.228 139.773,197.240 140.144 C 198.252 140.516,199.500 141.268,200.014 141.815 C 200.527 142.361,201.637 142.995,202.479 143.221 C 203.321 143.448,204.602 144.153,205.325 144.788 C 206.048 145.423,207.401 146.247,208.332 146.619 C 209.262 146.992,210.187 147.603,210.388 147.978 C 210.589 148.353,211.486 148.879,212.383 149.148 C 213.280 149.416,214.595 150.139,215.307 150.755 C 216.018 151.370,217.635 152.342,218.900 152.914 C 220.165 153.487,221.200 154.118,221.200 154.317 C 221.200 154.516,221.965 155.009,222.900 155.412 C 223.835 155.816,225.050 156.551,225.600 157.045 C 226.150 157.540,227.619 158.324,228.864 158.788 C 230.120 159.255,231.399 160.044,231.737 160.560 C 232.072 161.071,232.853 161.591,233.473 161.716 C 234.093 161.840,235.230 162.404,236.000 162.969 C 236.770 163.535,238.331 164.439,239.470 164.980 C 240.608 165.521,241.688 166.229,241.870 166.553 C 242.051 166.877,243.082 167.521,244.161 167.983 C 245.239 168.445,246.730 169.358,247.474 170.012 C 248.219 170.665,249.101 171.200,249.434 171.200 C 250.339 171.200,252.529 172.418,253.114 173.248 C 253.397 173.649,254.324 174.185,255.174 174.439 C 256.023 174.694,257.176 175.327,257.736 175.846 C 258.296 176.365,259.727 177.220,260.915 177.746 C 262.104 178.271,263.182 178.975,263.310 179.309 C 263.438 179.643,264.430 180.211,265.514 180.571 C 266.598 180.932,267.897 181.664,268.400 182.200 C 268.903 182.736,270.168 183.457,271.210 183.803 C 272.253 184.150,273.442 184.812,273.853 185.274 C 274.264 185.737,275.531 186.531,276.670 187.039 C 277.808 187.547,278.888 188.220,279.070 188.533 C 279.251 188.847,280.324 189.498,281.453 189.981 C 282.893 190.596,283.886 191.387,284.778 192.629 C 285.477 193.603,286.199 194.400,286.381 194.400 C 287.667 194.400,288.510 201.454,287.482 203.612 C 286.323 206.046,283.379 209.197,281.513 209.999 C 280.475 210.446,279.177 211.259,278.631 211.806 C 278.084 212.353,277.395 212.800,277.099 212.800 C 276.804 212.800,275.329 213.610,273.822 214.600 C 272.315 215.590,270.844 216.400,270.555 216.400 C 270.265 216.400,269.406 216.946,268.646 217.613 C 267.886 218.281,266.426 219.112,265.401 219.462 C 264.376 219.811,263.434 220.367,263.307 220.697 C 263.180 221.028,262.104 221.729,260.915 222.254 C 259.727 222.780,258.296 223.635,257.736 224.154 C 257.176 224.673,256.023 225.306,255.174 225.561 C 254.324 225.815,253.397 226.351,253.114 226.752 C 252.529 227.582,250.339 228.800,249.434 228.800 C 249.101 228.800,248.219 229.335,247.474 229.988 C 246.730 230.642,245.239 231.555,244.161 232.017 C 243.082 232.479,242.051 233.123,241.870 233.447 C 241.688 233.771,240.608 234.479,239.470 235.020 C 238.331 235.561,236.770 236.465,236.000 237.031 C 235.230 237.596,234.093 238.160,233.473 238.284 C 232.853 238.409,232.072 238.929,231.737 239.440 C 231.399 239.956,230.120 240.745,228.864 241.212 C 227.619 241.676,226.150 242.460,225.600 242.955 C 225.050 243.449,223.835 244.184,222.900 244.588 C 221.965 244.991,221.200 245.484,221.200 245.683 C 221.200 245.882,220.165 246.513,218.900 247.086 C 217.635 247.658,216.018 248.630,215.307 249.245 C 214.595 249.861,213.272 250.586,212.365 250.858 C 211.458 251.129,210.619 251.607,210.499 251.919 C 210.379 252.231,209.183 252.983,207.841 253.589 C 206.498 254.195,205.066 255.065,204.659 255.523 C 204.251 255.980,203.396 256.469,202.758 256.609 C 202.121 256.749,200.879 257.466,199.999 258.201 C 199.118 258.937,197.723 259.754,196.899 260.018 C 196.074 260.281,194.950 260.905,194.400 261.405 C 193.850 261.905,192.468 262.780,191.328 263.349 C 190.189 263.919,189.137 264.578,188.992 264.814 C 188.846 265.050,187.798 265.657,186.663 266.164 C 185.528 266.670,184.255 267.472,183.834 267.946 C 183.413 268.420,182.183 269.071,181.101 269.392 C 180.019 269.714,178.809 270.389,178.413 270.893 C 178.017 271.397,176.789 272.134,175.684 272.531 C 174.580 272.928,173.362 273.600,172.977 274.025 C 172.593 274.449,171.361 275.248,170.239 275.799 C 169.118 276.351,167.588 277.252,166.841 277.801 C 166.093 278.350,165.186 278.800,164.824 278.800 C 164.463 278.800,163.534 279.396,162.762 280.125 C 161.461 281.352,155.600 283.225,154.228 282.853 C 154.023 282.797,152.975 282.585,151.898 282.381 C 147.935 281.629,147.385 281.130,144.301 275.481 C 143.216 273.494,143.216 126.506,144.301 124.519 C 146.324 120.814,147.313 119.322,148.052 118.861 C 149.133 118.185,154.450 116.822,155.150 117.041 C 155.452 117.136,156.957 117.499,158.493 117.848 M389.467 342.267 C 389.084 342.649,389.138 343.200,389.557 343.200 C 389.754 343.200,390.018 342.930,390.145 342.600 C 390.379 341.990,389.953 341.781,389.467 342.267 M18.012 349.071 C 17.996 349.681,19.119 350.804,19.729 350.788 C 19.988 350.781,19.891 350.595,19.513 350.375 C 19.135 350.155,18.645 349.665,18.425 349.287 C 18.205 348.909,18.019 348.812,18.012 349.071 M380.914 349.842 C 380.427 350.369,380.189 350.800,380.386 350.800 C 380.856 350.800,382.000 349.645,382.000 349.171 C 382.000 348.688,381.958 348.713,380.914 349.842 M31.700 354.676 C 32.085 354.776,32.715 354.776,33.100 354.676 C 33.485 354.575,33.170 354.493,32.400 354.493 C 31.630 354.493,31.315 354.575,31.700 354.676 M366.900 354.676 C 367.285 354.776,367.915 354.776,368.300 354.676 C 368.685 354.575,368.370 354.493,367.600 354.493 C 366.830 354.493,366.515 354.575,366.900 354.676  M -25 0 L -5 0 L -5 20 L -25 20 Z M 405 0 L 425 0 L 425 20 L 405 20 Z" stroke="none" fill="#747ce4" fill-rule="evenodd" transform="translate(490,460)"></path></g></svg>