<svg version="1.1" id="Layer_1" xmlns="http://www.w3.org/2000/svg" xmlns:xlink="http://www.w3.org/1999/xlink" x="0px" y="0px"
	 width="100%" viewBox="0 0 64 64" enable-background="new 0 0 64 64" xml:space="preserve">
<path fill="none" opacity="1.000000" stroke="#000000" stroke-linecap="round" stroke-linejoin="round" stroke-width="13.000000"
	d="
M31.000000,59.500000 
	C33.257805,59.848946 34.610561,58.391178 36.000580,57.000580 
	C42.332592,50.665924 48.722988,44.388317 54.979370,37.979858 
	C58.879166,33.985268 58.879173,32.014740 54.979374,28.020138 
	C48.722992,21.611677 42.332588,15.334077 36.000580,8.999421 
	C34.610561,7.608822 33.257805,6.151055 31.000000,6.500000 
"/>
<path fill="none" opacity="1.000000" stroke="#000000" stroke-linecap="round" stroke-linejoin="round" stroke-width="13.000000"
	d="
M5.750000,5.500000 
	C5.899606,7.851569 6.675743,9.768565 8.447480,11.552171 
	C13.431286,16.569366 18.242775,21.764776 22.977243,27.020500 
	C27.180958,31.687031 27.058971,32.292664 22.502762,37.002670 
	C18.323093,41.323425 14.120595,45.623741 10.023198,50.021610 
	C8.435025,51.726246 6.301038,53.203384 6.500000,56.000000 
"/>
</svg>